<?xml version="1.0" standalone="no"?>
<!DOCTYPE svg PUBLIC "-//W3C//DTD SVG 20010904//EN"
 "http://www.w3.org/TR/2001/REC-SVG-20010904/DTD/svg10.dtd">
<svg version="1.0" xmlns="http://www.w3.org/2000/svg"
 width="512.000000pt" height="512.000000pt" viewBox="0 0 512.000000 512.000000"
 preserveAspectRatio="xMidYMid meet">
<metadata>
Created by potrace 1.11, written by Peter Selinger 2001-2013
</metadata>
<g transform="translate(0.000000,512.000000) scale(0.100000,-0.100000)"
fill="#000000" stroke="none">
<path d="M635 5105 c-317 -58 -563 -305 -621 -625 -20 -111 -20 -3729 0 -3840
59 -322 305 -568 626 -626 111 -20 3729 -20 3840 0 321 58 567 304 626 626 20
110 20 3729 0 3840 -58 321 -304 567 -626 626 -107 19 -3739 19 -3845 -1z
m1761 -150 c70 -44 106 -117 112 -229 6 -117 -15 -186 -76 -247 -60 -60 -94
-69 -264 -69 l-138 0 0 291 0 290 158 -3 c157 -3 159 -3 208 -33z m328 -218
l90 -248 18 48 c10 26 51 138 91 248 l74 200 46 3 47 3 -19 -48 c-10 -26 -60
-157 -111 -290 l-93 -243 -52 0 -52 0 -93 243 c-51 133 -101 264 -111 290
l-19 48 47 -3 47 -3 90 -248z m86 -1866 c47 -11 110 -28 140 -39 55 -19 55
-19 52 -58 -4 -54 -64 -228 -108 -316 -58 -115 -146 -237 -239 -329 -46 -46
-89 -84 -95 -84 -6 0 -49 38 -95 84 -93 92 -181 214 -239 329 -44 88 -104 262
-108 316 l-3 39 67 23 c65 22 183 48 258 58 73 9 287 -4 370 -23z m-687 -321
c64 -170 166 -326 297 -458 l90 -89 -54 -36 c-200 -133 -429 -201 -676 -201
-154 0 -249 15 -378 58 l-67 23 3 39 c4 54 64 228 108 316 116 232 309 428
539 550 l70 37 21 -87 c12 -48 33 -116 47 -152z m1147 119 c161 -110 313 -286
404 -467 44 -88 104 -262 108 -316 l3 -39 -67 -23 c-129 -43 -224 -58 -378
-58 -247 0 -476 68 -676 201 l-54 36 90 89 c174 175 307 416 350 636 l12 61
62 -31 c33 -17 99 -57 146 -89z m-642 -748 c121 -82 291 -152 452 -187 64 -14
128 -18 260 -18 182 0 274 12 397 55 31 10 59 16 62 13 14 -14 4 -282 -13
-364 -108 -508 -487 -887 -996 -996 -117 -25 -343 -25 -460 0 -509 109 -888
488 -996 996 -17 82 -27 350 -13 364 3 3 31 -3 62 -13 123 -43 215 -55 397
-55 132 0 196 4 260 18 161 35 341 110 455 190 28 19 56 35 63 35 7 1 39 -16
70 -38z"/>
<path d="M2110 4700 l0 -223 105 5 c113 5 136 14 177 69 30 40 45 147 30 217
-13 61 -32 94 -76 126 -22 17 -46 21 -131 24 l-105 4 0 -222z"/>
</g>
</svg>
